DBRep_DrawableShape

CASCADE Topology V1, (c) Matra-Datavision
Locations 23
1
              1               0               0               0 
              0               1               0               0 
              0               0               1           -25.5 
1
              1               0               0         6.03586 
              0               1               0               0 
              0               0               1               0 
1
              1               0               0               0 
              0               1               0               0 
              0               0               1               0 
2  2 1 3 1 0
2  3 -1 2 -1 0
1
              1               0               0               0 
              0               1               0               0 
              0               0               1              51 
2  2 1 3 1 6 1 0
2  6 -1 3 -1 2 -1 0
1
              1               0               0               0 
              0               1               0               0 
              0               0               1               0 
2  9 1 3 1 0
2  3 -1 9 -1 0
1
              1               0               0               0 
              0               1               0               0 
              0               0               1              51 
2  9 1 3 1 12 1 0
2  12 -1 3 -1 9 -1 0
2  2 1 9 -1 0
2  9 1 3 1 6 1 0
1
              1               0               0               0 
              0               1               0               0 
              0               0               1              51 
2  2 1 3 1 17 1 6 -1 3 -1 9 -1 0
2  6 -1 3 -1 9 -1 0
2  9 1 2 -1 0
2  2 1 3 1 17 1 0
2  9 1 3 1 12 1 17 -1 3 -1 2 -1 0
2  17 -1 3 -1 2 -1 0
Curve2ds 50
1 4.7123877403652745 0 0 -1 
1 1.0000006199106792e-05 0 0 -1 
1 6.2831853071795862 0 0 -1 
1 0 0 0 -1 
1 0 0 1 0 
2 5.0869568530518361e-16 -3.4905993372104733e-16 1 0 -0 1 8.0643899999999995
1 0 -51 1 0 
2 5.0869568530518361e-16 -3.4905993372104733e-16 1 0 -0 1 8.0643899999999995
1 0 0 0 -1 
1 12.0717 0 0 -1 
1 0 0 1 0 
1 6.0358499999999999 -8.0643999999999991 0 1 
1 0 -51 1 0 
1 6.0358499999999999 -8.0643999999999991 0 1 
1 1.5707975668143124 0 0 -1 
1 0 0 0 -1 
1 0 0 1 0 
2 5.0869568530518361e-16 -3.4905993372104733e-16 1 0 -0 1 8.0643899999999995
1 0 -51 1 0 
2 5.0869568530518361e-16 -3.4905993372104733e-16 1 0 -0 1 8.0643899999999995
1 -9.999999999112727e-06 -8.0643999999999991 0 1 
1 -9.999999999112727e-06 -8.0643999999999991 0 1 
1 -9.999999999112727e-06 -8.0643999999999991 0 1 
1 -9.999999999112727e-06 -8.0643999999999991 0 1 
1 0 0 0 -1 
1 16.128799999999998 0 0 -1 
1 0 0 1 0 
1 -6.0358499999999999 -8.0643999999999991 1 0 
1 0 -51 1 0 
1 -6.0358499999999999 -8.0643999999999991 1 0 
1 -6.0358499999999999 8.0643999999999991 0 -1 
1 0 0 1 0 
1 6.0358499999999999 8.0643999999999991 -1 0 
1 0 -0 1 0 
1 6.0358499999999999 -8.0643999999999991 0 1 
1 -16.128789999993799 0 1 0 
2 6.0358599999999996 0 1 0 -0 1 8.0643899999999995
2 5.0869568530518361e-16 -3.4905993372104733e-16 1 0 -0 1 8.0643899999999995
1 -6.0358499999999999 8.0643999999999991 0 -1 
1 0 -51 1 0 
1 6.0358499999999999 8.0643999999999991 -1 0 
1 0 -51 1 0 
1 6.0358499999999999 -8.0643999999999991 0 1 
1 -16.128789999993799 -51 1 0 
2 6.0358599999999996 0 1 0 -0 1 8.0643899999999995
2 5.0869568530518361e-16 -3.4905993372104733e-16 1 0 -0 1 8.0643899999999995
1 1.0000006199106792e-05 0 0 -1 
1 0 -0 0 -1 
1 0 0 0 -1 
1 12.0717 0 0 -1 
Curves 25
1 6.0358499999998276 -8.0643899999938 0 0 0 1 
1 14.100249999999997 0 0 0 0 1 
2 0 0 0 0 0 1 1 0 -0 -0 1 0 8.0643899999999995
2 0 0 0 0 0 1 1 0 -0 -0 1 0 8.0643899999999995
1 6.0358499999999999 -8.0643999999999991 0 0 0 1 
1 6.0358499999999999 -8.0643999999999991 0 0 1 0 
1 6.0358499999999999 -8.0643999999999991 0 0 1 0 
1 6.0358499999998232 8.0643899999938 0 0 0 1 
2 0 0 0 0 0 1 1 0 -0 -0 1 0 8.0643899999999995
2 0 0 0 0 0 1 1 0 -0 -0 1 0 8.0643899999999995
1 6.0358499999999999 -8.0643999999999991 0 0 1 0 
1 6.0358499999999999 -8.0643999999999991 0 0 1 0 
1 -6.0358499999999999 -8.0643999999999991 0 0 0 1 
1 -6.0358499999999999 -8.0643999999999991 0 1 0 0 
1 -6.0358499999999999 -8.0643999999999991 0 1 0 0 
1 -6.0358499999999999 8.0643999999999991 0 0 -1 0 
1 6.0358499999999999 8.0643999999999991 0 -1 0 0 
1 6.0358499999999999 -8.0643999999999991 0 0 1 0 
2 0 0 0 0 0 1 1 0 -0 -0 1 0 8.0643899999999995
1 -6.0358499999999999 8.0643999999999991 0 0 -1 0 
1 6.0358499999999999 8.0643999999999991 0 -1 0 0 
1 6.0358499999999999 -8.0643999999999991 0 0 1 0 
2 0 0 0 0 0 1 1 0 -0 -0 1 0 8.0643899999999995
1 6.0358499999999999 8.0643999999999991 0 0 0 1 
1 -6.0358499999999999 8.0643999999999991 0 0 0 1 
Polygon3D 0
PolygonOnTriangulations 0
Surfaces 13
2 6.0358599999999996 0 0 -0 -0 -1 1 0 0 0 1 0 8.0643899999999995
1 6.0358499999999999 -8.0643999999999991 0 -1 0 0 0 1 0 0 0 -1 
2 6.0358599999999996 0 0 -0 -0 -1 1 0 0 0 1 0 8.0643899999999995
1 -5.0869568530518361e-16 3.4905993372104733e-16 0 0 0 1 1 0 -0 -0 1 0 
1 -5.0869568530518361e-16 3.4905993372104733e-16 0 0 0 1 1 0 -0 -0 1 0 
1 -6.0358499999999999 -8.0643999999999991 0 0 1 0 1 0 0 0 0 -1 
1 0 0 0 0 0 1 1 0 -0 -0 1 0 
1 0 0 0 0 0 1 1 0 -0 -0 1 0 
1 6.0358499999999999 8.0643899999938 0 -1 0 0 0 1 0 0 0 -1 
1 -5.0869568530518361e-16 3.4905993372104733e-16 0 0 0 1 1 0 -0 -0 1 0 
1 -5.0869568530518361e-16 3.4905993372104733e-16 0 0 0 1 1 0 -0 -0 1 0 
1 -6.0358499999999999 8.0643999999999991 0 1 0 -0 0 -1 0 0 -0 -1 
1 6.0358499999999999 8.0643999999999991 0 0 -1 0 -1 0 0 -0 -0 -1 
Triangulations 0

TShapes 68
Ve
1.00000172306613e-07
6.03584999999983 -8.0643899999938 0
0 0

0101101
*
Ve
1.00000172306613e-07
6.03584999999983 -8.0643899999938 51
0 0

0101101
*
Ed
 1.00000172306613e-07 1 1 0
1  1 0 0 51
2  1 1 0 0 51
2  2 2 0 0 51
0

0101000
+68 0 -67 0 *
Ve
1.00000007332871e-07
14.10025 0 0
0 0

0101101
*
Ve
1.00000007332871e-07
14.10025 0 51
0 0

0101101
*
Ed
 1.00000007332871e-07 1 1 0
1  2 0 0 51
2  3 1 0 0 51
2  4 3 0 0 51
4 C2 1 0 3 0
0

0101000
+65 0 -64 0 *
Ed
 1.00000005556514e-07 1 1 0
1  3 0 4.71238774036527 6.28318530717959
2  5 1 5 4.71238774036527 6.28318530717959
2  6 4 0 4.71238774036527 6.28318530717959
0

0101000
+68 5 -65 5 *
Ed
 1.00000005556514e-07 1 1 0
1  4 0 4.71238774036527 6.28318530717959
2  7 1 8 4.71238774036527 6.28318530717959
2  8 5 0 4.71238774036527 6.28318530717959
0

0101000
+67 8 -64 8 *
Wi

0101100
+66 0 -63 0 -62 4 +61 7 *
Fa
0  1.00000005556514e-07 1 0

0101000
+60 0 *
Ve
1e-07
6.03585 -8.0644 0
0 0

0101101
*
Ve
1e-07
6.03585 -8.0644 51
0 0

0101101
*
Ed
 1e-07 1 1 0
1  5 0 0 51
2  9 2 0 0 51
2  10 6 0 0 51
0

0101000
+58 0 -57 0 *
Ed
 1e-07 1 1 0
1  6 0 0 1.00000061991068e-05
2  11 2 11 0 1.00000061991068e-05
2  12 7 0 0 1.00000061991068e-05
0

0101000
+58 11 -68 11 *
Ed
 1e-07 1 1 0
1  7 0 0 1.00000061991068e-05
2  13 2 14 0 1.00000061991068e-05
2  14 8 0 0 1.00000061991068e-05
0

0101000
+57 14 -67 14 *
Wi

0101100
+56 0 -66 0 -55 10 +54 13 *
Fa
0  1e-07 2 0

0101000
+53 0 *
Ve
1.00000176747506e-07
6.03584999999982 8.0643899999938 0
0 0

0101101
*
Ve
1.00000176747506e-07
6.03584999999982 8.0643899999938 51
0 0

0101101
*
Ed
 1.00000176747506e-07 1 1 0
1  8 0 0 51
2  15 3 0 0 51
2  16 9 0 0 51
0

0101000
+51 0 -50 0 *
Ed
 1.00000005556514e-07 1 1 0
1  9 0 0 1.57079756681431
2  17 3 5 0 1.57079756681431
2  18 4 0 0 1.57079756681431
0

0101000
+65 5 -51 5 *
Ed
 1.00000005556514e-07 1 1 0
1  10 0 0 1.57079756681431
2  19 3 8 0 1.57079756681431
2  20 5 0 0 1.57079756681431
0

0101000
+64 8 -50 8 *
Wi

0101100
+63 0 -49 0 -48 4 +47 7 *
Fa
0  1.00000005556514e-07 3 0

0101000
+46 0 *
Ed
 1e-07 1 1 0
1  11 0 1.00000061991068e-05 16.1287899999938
2  21 4 15 1.00000061991068e-05 16.1287899999938
2  22 10 15 1.00000061991068e-05 16.1287899999938
0

0101000
+68 11 -51 11 *
Wi

0101100
+62 4 -44 10 +48 4 *
Fa
0  1e-07 4 4

0101000
+43 0 *
Ed
 1e-07 1 1 0
1  12 0 1.00000061991068e-05 16.1287899999938
2  23 5 15 1.00000061991068e-05 16.1287899999938
2  24 11 18 1.00000061991068e-05 16.1287899999938
0

0101000
+67 19 -50 19 *
Wi

0101100
+61 7 -41 16 +47 7 *
Fa
0  1e-07 5 7

0101000
+40 0 *
Ve
1e-07
-6.03585 -8.0644 0
0 0

0101101
*
Ve
1e-07
-6.03585 -8.0644 51
0 0

0101101
*
Ed
 1e-07 1 1 0
1  13 0 0 51
2  25 6 0 0 51
2  26 12 0 0 51
0

0101000
+38 0 -37 0 *
Ed
 1e-07 1 1 0
1  14 0 0 12.0717
2  27 6 11 0 12.0717
2  28 7 0 0 12.0717
0

0101000
+38 11 -58 11 *
Ed
 1e-07 1 1 0
1  15 0 0 12.0717
2  29 6 14 0 12.0717
2  30 8 0 0 12.0717
0

0101000
+37 14 -57 14 *
Wi

0101100
+36 0 -56 0 -35 10 +34 13 *
Fa
0  1e-07 6 0

0101000
+33 0 *
Ve
1e-07
-6.03585 8.0644 0
0 0

0101101
*
Ed
 1e-07 1 1 0
1  16 0 0 16.1288
2  31 7 0 0 16.1288
2  32 12 11 0 16.1288
0

0101000
+31 11 -38 11 *
Ve
1e-07
6.03585 8.0644 0
0 0

0101101
*
Ed
 1e-07 1 1 0
1  17 0 0 12.0717
2  33 7 0 0 12.0717
2  34 13 11 0 12.0717
0

0101000
+29 11 -31 11 *
Ed
 1e-07 1 1 0
1  18 0 16.1287899999938 16.1288
2  35 7 0 16.1287899999938 16.1288
2  36 9 11 16.1287899999938 16.1288
0

0101000
+51 11 -29 11 *
Ed
 1.00000013500624e-07 1 1 0
1  19 0 1.57079756681431 4.71238774036527
2  37 7 20 1.57079756681431 4.71238774036527
2  38 10 0 1.57079756681431 4.71238774036527
0

0101000
+51 5 -68 5 *
Wi

0101100
+30 10 +28 10 +27 10 -26 4 +55 10 +35 10 *
Fa
0  1e-07 7 10

0101000
+25 0 *
Ve
1e-07
-6.03585 8.0644 51
0 0

0101101
*
Ed
 1e-07 1 1 0
1  20 0 0 16.1288
2  39 8 0 0 16.1288
2  40 12 14 0 16.1288
0

0101000
+23 14 -37 14 *
Ve
1e-07
6.03585 8.0644 51
0 0

0101101
*
Ed
 1e-07 1 1 0
1  21 0 0 12.0717
2  41 8 0 0 12.0717
2  42 13 14 0 12.0717
0

0101000
+21 14 -23 14 *
Ed
 1e-07 1 1 0
1  22 0 16.1287899999938 16.1288
2  43 8 0 16.1287899999938 16.1288
2  44 9 14 16.1287899999938 16.1288
0

0101000
+50 14 -21 14 *
Ed
 1.00000013500624e-07 1 1 0
1  23 0 1.57079756681431 4.71238774036527
2  45 8 22 1.57079756681431 4.71238774036527
2  46 11 0 1.57079756681431 4.71238774036527
0

0101000
+50 23 -67 23 *
Wi

0101100
+22 13 +20 13 +19 13 -18 21 +54 13 +34 13 *
Fa
0  1e-07 8 13

0101000
+17 0 *
Ed
 1e-07 1 1 0
1  24 0 0 51
2  47 9 0 0 51
2  48 13 0 0 51
0

0101000
+29 0 -21 0 *
Wi

0101100
+49 0 -15 0 -27 10 +19 13 *
Fa
0  1e-07 9 0

0101000
+14 0 *
Wi

0101100
+44 10 +26 4 *
Fa
0  1e-07 10 4

0101000
+12 0 *
Wi

0101100
+41 16 +18 21 *
Fa
0  1e-07 11 21

0101000
+10 0 *
Ed
 1e-07 1 1 0
1  25 0 0 51
2  49 12 0 0 51
2  50 13 0 0 51
0

0101000
+31 0 -23 0 *
Wi

0101100
+8 0 -36 0 -30 10 +22 13 *
Fa
0  1e-07 12 0

0101000
+7 0 *
Wi

0101100
+15 0 -8 0 -28 10 +20 13 *
Fa
0  1e-07 13 0

0101000
+5 0 *
Sh

0101100
-59 0 -52 0 -45 0 -42 0 +39 0 -32 0 -24 0 +16 0 -13 0 -11 0 
+9 0 -6 0 -4 0 *
So

0100000
+3 0 *
Co

1100000
+2 0 *

+1 1 