DBRep_DrawableShape

CASCADE Topology V1, (c) Matra-Datavision
Locations 11
1
              1               0               0               0 
              0               1               0               0 
              0               0               1               0 
1
              1               0               0               0 
              0               1               0               0 
              0               0               1               0 
1
              1               0               0               0 
              0               1               0               0 
              0               0               1             -27 
2  1 1 2 1 3 1 0
2  2 -1 1 -1 0
2  3 -1 2 -1 1 -1 0
1
              1               0               0         6.03586 
              0               1               0               0 
              0               0               1               0 
1
              1               0               0               0 
              0               1               0               0 
              0               0               1              54 
2  7 1 2 1 8 1 3 1 0
2  8 -1 2 -1 7 -1 0
2  3 -1 8 -1 2 -1 7 -1 0
Curve2ds 16
1 6.0358499999999999 -6.0644 0 1 
1 -12.128789999991756 0 1 0 
1 6.0358499999999999 6.0644 -1 0 
1 0 -0 1 0 
1 -6.0358499999999999 6.0644 0 -1 
1 0 0 1 0 
1 0 0 1 0 
1 -6.0358499999999999 -6.0644 1 0 
1 0 0 1 0 
1 6.0358499999999999 -6.0644 0 1 
1 4.7123873314142362 0 0 -1 
1 1.0000008244581693e-05 0 0 -1 
1 0 -54 1 0 
2 1.1274341958048735e-16 -6.5438949656785805e-16 1 0 -0 1 6.0643900000000004
1 0 -54 1 0 
2 1.1274341958048735e-16 -6.5438949656785805e-16 1 0 -0 1 6.0643900000000004
Curves 9
1 6.0358500000000763 6.0643899999917554 -27 -0 -0 -1 
1 6.0358499999999999 -6.0644 0 0 1 0 
1 6.0358499999999999 6.0644 0 -1 0 0 
1 -6.0358499999999999 6.0644 0 0 -1 0 
1 -6.0358499999999999 -6.0644 0 1 0 0 
1 6.0358499999999999 -6.0644 0 0 1 0 
1 6.0358500000000701 -6.0643899999917554 0 0 0 1 
2 0 0 0 0 0 1 1 0 -0 -0 1 0 6.0643900000000004
2 0 0 0 0 0 1 1 0 -0 -0 1 0 6.0643900000000004
Polygon3D 0
PolygonOnTriangulations 0
Surfaces 9
1 0 2.9360663447453577e-16 0 0 0 1 1 0 -0 -0 1 0 
1 6.0358499999999999 6.0643899999917563 0 -1 0 0 0 1 0 0 0 -1 
1 6.0358499999999999 6.0644 0 0 -1 0 -1 0 0 -0 -0 -1 
1 -6.0358499999999999 6.0644 0 1 0 -0 0 -1 0 0 -0 -1 
1 -6.0358499999999999 -6.0644 0 0 1 0 1 0 0 0 0 -1 
1 6.0358499999999999 -6.0644 0 -1 0 0 0 1 0 0 0 -1 
2 6.0358599999999996 0 0 -0 -0 -1 1 0 0 0 1 0 6.0643900000000004
1 -1.1274341958048735e-16 6.5438949656785805e-16 0 0 0 1 1 0 -0 -0 1 0 
2 6.0358599999999996 0 0 -0 -0 -1 1 0 0 0 1 0 6.0643900000000004
Triangulations 0

TShapes 19
Ve
1.00000076388508e-07
6.03585000000008 6.06438999999176 27
0 0

0101101
*
Ve
1.00000076388508e-07
6.03585000000008 6.06438999999176 -27
0 0

0101101
*
Ed
 1e-07 1 1 0
1  1 0 -54 -0
0

0101000
+19 0 -18 0 *
Ve
1e-07
6.03585 6.0644 0
0 0

0101101
*
Ed
 1e-07 1 1 0
1  2 0 12.1287899999918 12.1288
2  1 1 0 12.1287899999918 12.1288
2  2 2 5 12.1287899999918 12.1288
0

0101000
+18 6 -16 5 *
Ve
1e-07
-6.03585 6.0644 0
0 0

0101101
*
Ed
 1e-07 1 1 0
1  3 0 0 12.0717
2  3 1 0 0 12.0717
2  4 3 5 0 12.0717
0

0101000
+16 5 -14 5 *
Ve
1e-07
-6.03585 -6.0644 0
0 0

0101101
*
Ed
 1e-07 1 1 0
1  4 0 0 12.1288
2  5 1 0 0 12.1288
2  6 4 5 0 12.1288
0

0101000
+14 5 -12 5 *
Ve
1e-07
6.03585 -6.0644 0
0 0

0101101
*
Ed
 1e-07 1 1 0
1  5 0 0 12.0717
2  7 5 5 0 12.0717
2  8 1 0 0 12.0717
0

0101000
+12 5 -10 5 *
Ve
1.00000070166095e-07
6.03585000000007 -6.06438999999176 0
0 0

0101101
*
Ed
 1e-07 1 1 0
1  6 0 0 1.00000082445817e-05
2  9 6 5 0 1.00000082445817e-05
2  10 1 0 0 1.00000082445817e-05
0

0101000
+10 5 -8 5 *
Ve
1.00000070166095e-07
6.03585000000007 -6.06438999999176 54
0 0

0101101
*
Ed
 1.00000070166095e-07 1 1 0
1  7 0 0 54
2  11 7 0 0 54
2  12 6 0 0 54
0

0101000
+8 0 -6 0 *
Ve
1.0000000649709e-07
12.10025 0 54
0 0

0101101
*
Ed
 1.00000004720733e-07 1 1 0
1  8 0 4.71238733141424 6.28318530717959
2  13 7 10 4.71238733141424 6.28318530717959
2  14 8 0 4.71238733141424 6.28318530717959
0

0101000
+6 10 -4 10 *
Ed
 1.00000004720733e-07 1 1 0
1  9 0 0 1.57079797576535
2  15 9 10 0 1.57079797576535
2  16 8 0 0 1.57079797576535
0

0101000
+4 10 -19 11 *
Wi

1101100
+17 0 +15 4 +13 4 +11 4 +9 4 +7 4 +5 3 +3 9 +2 9 *

+1 0 